<svg width="58" height="40" viewBox="0 0 58 40" fill="none" xmlns="http://www.w3.org/2000/svg">
<path d="M42.5182 23.722C44.9283 24.4945 47.3258 25.2908 49.7173 26.0986L58 28.8866L56.8943 29.3291C52.3482 31.1465 47.7874 32.9347 43.2007 34.6773L36.3162 37.28L29.411 39.8469L29.0004 40L21.6868 37.2782C19.3823 36.4321 17.0986 35.5441 14.806 34.6761C10.2193 32.9377 5.65989 31.1477 1.11602 29.3309L0 28.8842L7.70876 26.3113C9.90536 25.5764 12.1079 24.8519 14.3237 24.1517C12.2105 25.0416 10.0834 25.9065 7.95103 26.7617L1.55696 29.3309V28.5122C6.23525 30.0804 10.8936 31.6832 15.5335 33.3231C20.183 34.9472 24.7911 36.6497 29.411 38.32H28.5897L35.5207 35.8048C37.8259 34.9557 40.1562 34.1522 42.4746 33.328C47.1138 31.6856 51.7758 30.084 56.4548 28.514V29.3291L49.4758 26.5459C47.1485 25.6196 44.8271 24.6829 42.5182 23.722Z" fill="#DDAE67"/>
<path d="M33.1011 2.49085V36.1288L28.9982 38.1224V0L33.1011 2.49085Z" fill="#DDAE67"/>
<path d="M45.7555 10.1676V29.9765L41.6526 31.9707V7.67738L45.7555 10.1676Z" fill="#DDAE67"/>
<path d="M39.4176 6.32314V33.0557L35.3287 35.0432V3.84445L39.4176 6.32314Z" fill="#DDAE67"/>
<path d="M24.833 2.53035V36.4029L22.5914 35.2547V3.88945L24.833 2.53035Z" fill="#DDAE67"/>
<path d="M19.6577 5.67218V33.7583L17.4294 32.6217V7.02641L19.6577 5.67218Z" fill="#DDAE67"/>
<path d="M14.4965 8.80792V31.1192L12.2549 29.9765V10.1676L14.4965 8.80792Z" fill="#DDAE67"/>
</svg>
